<?xml version="1.0" encoding="utf-8"?>
<!-- Generator: Adobe Illustrator 19.0.0, SVG Export Plug-In . SVG Version: 6.00 Build 0)  -->
<svg version="1.1" xmlns="http://www.w3.org/2000/svg" xmlns:xlink="http://www.w3.org/1999/xlink" x="0px" y="0px"
	 viewBox="0 0 535.1 800" enable-background="new 0 0 535.1 800" xml:space="preserve">
<g id="Darker_Wood_2">
</g>
<g id="Darker_Wood">
	<polygon id="XMLID_5_" fill="#D37B4A" points="113.6,510.3 68.3,788.3 91,792.3 143,497.6 	"/>
	<polygon id="XMLID_6_" fill="#D37B4A" points="381,504.3 400.6,608.5 434.3,788.3 459.6,783 404.3,493.3 	"/>
	<polyline id="XMLID_8_" fill="#B05A33" points="118.3,637.5 118.7,635.3 405.1,632.9 400.6,608.5 123,610.9 	"/>
</g>
<g id="Wood">
	<path id="XMLID_4_" fill="#E7A478" d="M312.6,11c0,0-15.7-10-23,5l15,79L327,80.3L312.6,11z"/>
	<path id="XMLID_3_" fill="#E7A478" d="M206.3,85.3l12-68.3c0,0-7.3-13.7-22.3-4l-14.7,85L206.3,85.3z"/>
	<polygon id="XMLID_2_" fill="#E7A478" points="500.3,486.3 500.3,510.3 21,515.6 21,466.3 	"/>
</g>
<g id="Paper_1_">
	<polygon id="Paper" fill="#FFF2D5" points="11.3,82 495.3,76.3 523.3,492 3.3,497.6 	"/>
</g>
</svg>
